<?xml version="1.0" encoding="utf-8"?>
<!-- Svg Vector Icons : http://www.onlinewebfonts.com/icon -->
<!DOCTYPE svg PUBLIC "-//W3C//DTD SVG 1.1//EN" "http://www.w3.org/Graphics/SVG/1.1/DTD/svg11.dtd">
<svg version="1.1" xmlns="http://www.w3.org/2000/svg" xmlns:xlink="http://www.w3.org/1999/xlink" x="0px" y="0px" viewBox="0 0 256 256" enable-background="new 0 0 256 256" xml:space="preserve">
<metadata> Svg Vector Icons : http://www.onlinewebfonts.com/icon </metadata>
<g><g><path fill="#000000" d="M194.7,92c-13.1-25.2-39.3-42.4-69.7-42.4c-35.8,0-66,24-75.4,56.8C27,111.4,10,131.6,10,155.8c0,27.9,22.7,50.6,50.6,50.6h45.7v-65.7H88c-1.2,0-2.3-0.7-2.8-1.8s-0.4-2.4,0.4-3.3l40-48.2c0.6-0.7,1.5-1.1,2.4-1.1c0.9,0,1.8,0.4,2.4,1.1l39.9,48.1c0.5,0.6,0.8,1.3,0.8,2.1c0,1.7-1.4,3.1-3.1,3.1c0,0,0,0,0,0h-18.3v65.8h38.9c31.7,0,57.4-25.7,57.4-57.4C246,119.4,223.6,95,194.7,92z"/></g></g>
</svg>